<?xml version="1.0" standalone="no"?><!DOCTYPE svg PUBLIC "-//W3C//DTD SVG 1.1//EN" "http://www.w3.org/Graphics/SVG/1.1/DTD/svg11.dtd"><svg class="icon" width="200px" height="200.00px" viewBox="0 0 1024 1024" version="1.1" xmlns="http://www.w3.org/2000/svg"><path fill="#ffffff" d="M960 1024 64 1024c-35.328 0-64-28.608-64-64L0 320c0-35.328 28.672-64 64-64l896 0c35.392 0 64 28.672 64 64l0 640C1024 995.392 995.392 1024 960 1024zM768 704 576 704l0-64 192 0L768 512 632.32 512l69.696-118.784c6.4-10.88-1.024-26.944-16.64-35.776l-56.256-32C613.568 316.608 595.776 318.336 589.376 329.216L512 461.12 434.688 329.216C428.224 318.336 410.432 316.608 394.88 325.44l-56.256 32C323.008 366.272 315.648 382.336 322.048 393.216L391.68 512 256 512l0 128 192 0 0 64L256 704l0 128 192 0 0 128 128 0 0-128 192 0L768 704zM928 192l-832 0C78.336 192 64 177.664 64 160S78.336 128 96 128l832 0C945.6 128 960 142.336 960 160S945.6 192 928 192zM800 64l-576 0C206.336 64 192 49.664 192 32S206.336 0 224 0l576 0C817.6 0 832 14.336 832 32S817.6 64 800 64z" /></svg>