<?xml version="1.0" standalone="no"?><!DOCTYPE svg PUBLIC "-//W3C//DTD SVG 1.1//EN" "http://www.w3.org/Graphics/SVG/1.1/DTD/svg11.dtd"><svg class="icon" width="200px" height="200.00px" viewBox="0 0 1024 1024" version="1.1" xmlns="http://www.w3.org/2000/svg"><path fill="#ffffff" d="M897.5 507.7c-35.3 0.9-35.6-0.2-49.5-33.3-16-38-36.7-72.8-68.8-99.7-7.6-6.4-16.2-11.6-27.4-19.5-6.2 35.9 5.6 65.5 14.3 96.2-59.5-40.6-66.6-129.4-22-276.4-6.3 1-11.8 1.3-16.8 2.8-52.3 16.7-92.6 48.4-117.9 97.4-6.3 12.1-12.6 14.2-25.6 11.7-108.6-20.8-215.1-16.5-313.9 38.4-29.2 16.3-53 42.2-79.2 63.8-3.9 3.2-6.7 7.7-10.3 11.3-13 13.1-26.4 23.8-45.4 9.5-17.2-12.9-23.7-34-15.5-52.2 8-17.7 27-25.3 47.9-19 5.3 1.6 10.3 3.6 18.4 6.5-9-22.3-22.6-34-43.1-36.1-21.4-2.2-38.4 7.1-50.7 24.1-6.6 9.1-11.1 19.8-16.6 29.8v39.4c13.3 21.3 25.3 43.6 40.3 63.6 11.9 15.9 11.9 30.9 7.5 49-13.6 56-18.8 112.1 7.8 166.4 19.3 39.4 47.3 71.9 81.6 98.4 19.6 15.1 24.2 31 13.7 52.9-5.3 11.1-9.8 22.8-13.6 34.5-6.7 20.9 0.3 37.9 20.5 46.8 21.3 9.3 43.1 17.7 65.2 25 20.9 6.9 37.5-1 46.5-21.2 6.5-14.6 9.9-30.9 18.2-44.3 4.5-7.2 17.6-14.9 24.9-13.4 58.6 12.4 117.3 10.8 176.1 4 16.5-1.9 25.5 4 31.5 19.4 26.1 67.1 28.4 67.8 94.7 42.4 6.1-2.3 12.2-4.8 18.3-7.2 34.5-13.1 41-27.4 28.2-61.9-12.9-34.8-12.3-36.8 18.9-56 38.2-23.6 68-55.6 86.7-96 12.3-26.5 29.6-37.9 58.1-34.6 21 2.4 38.8-3 49.6-23.1V529c-12.1-19.7-31.2-21.9-52.6-21.3z m-132.6 99c-28.2 0.6-51.5-22.2-51.7-50.6-0.3-28.1 23.2-51.8 51-51.5 27.2 0.3 50.2 22.7 50.9 49.7 0.7 27.8-22.3 51.9-50.2 52.4z"  /><path fill="#ffffff" d="M334.3 261.5c44.9-8.3 90.2-15.1 135.6-20 14.5-1.6 21.9-5.3 26.8-19.2 15-42.4 5.1-87.2-27.6-118.3-32.4-30.9-80.8-39.7-121.6-21-43.3 19.9-64.1 55-67 113.3 5.1 11.9 13.3 33.2 23.1 53.8 6 12.6 16.2 14 30.7 11.4z"  /></svg>