<?xml version="1.0" standalone="no"?><!DOCTYPE svg PUBLIC "-//W3C//DTD SVG 1.1//EN" "http://www.w3.org/Graphics/SVG/1.1/DTD/svg11.dtd"><svg class="icon" width="200px" height="200.00px" viewBox="0 0 1024 1024" version="1.1" xmlns="http://www.w3.org/2000/svg"><path fill="#ffffff" d="M861.761164 1024H162.238836C129.2288 1024 102.4 997.394618 102.4 964.701091V338.106182c0-84.843055 69.632-153.860655 155.219782-153.860655h508.760436C851.968 184.245527 921.6 253.263127 921.6 338.106182v626.594909C921.6 997.394618 894.7712 1024 861.761164 1024z m-121.558109-484.091345c0-8.136145-3.127855-16.272291-9.383564-22.472146a32.1536 32.1536 0 0 0-22.676946-9.309091h-121.725672V386.513455c0-7.894109-3.034764-15.7696-9.085673-21.783273a31.092364 31.092364 0 0 0-21.969455-9.0112h-86.090472c-8.098909 0-16.197818 3.053382-22.379055 9.197382a31.092364 31.092364 0 0 0-9.271854 22.174254v121.0368H315.019636a31.278545 31.278545 0 0 0-22.062545 9.067055 30.682764 30.682764 0 0 0-9.141527 21.857745v86.053237c0 7.819636 3.016145 15.639273 9.029818 21.59709 6.013673 5.957818 13.907782 8.936727 21.783273 8.936728h122.991709v121.595345c0 7.894109 3.034764 15.7696 9.104291 21.801891 6.088145 6.013673 14.038109 9.029818 22.00669 9.029818h84.656873a33.140364 33.140364 0 0 0 23.365818-9.588363c6.441891-6.404655 9.662836-14.782836 9.662837-23.161019v-119.677672h122.526254c8.005818 0 15.993018-3.016145 22.099782-9.067055 6.106764-6.050909 9.160145-13.982255 9.160146-21.894982v-84.768581z m132.263563-421.143273c-11.077818 7.056291-24.520145 10.593745-40.326982 10.593745H184.748218c-15.825455 0-28.076218-3.928436-36.770909-11.766691-8.713309-7.838255-13.051345-18.432-13.051345-31.744V43.510691c0-14.112582 4.747636-24.892509 14.224291-32.339782 9.495273-7.447273 22.155636-11.170909 37.98109-11.170909h645.008291c16.607418 0 30.235927 3.928436 40.922764 11.748073 10.668218 7.856873 16.011636 19.213964 16.011636 34.108509v38.818909c0 15.676509-5.5296 27.0336-16.607418 34.089891z" /></svg>