<?xml version="1.0" standalone="no"?><!DOCTYPE svg PUBLIC "-//W3C//DTD SVG 1.1//EN" "http://www.w3.org/Graphics/SVG/1.1/DTD/svg11.dtd"><svg class="icon" width="200px" height="200.00px" viewBox="0 0 1024 1024" version="1.1" xmlns="http://www.w3.org/2000/svg"><path fill="#ffffff" d="M722.432 306.176c-93.184 0-181.248-77.312-182.272-77.824-8.192-7.168-17.92-10.752-28.16-10.752s-19.968 3.584-28.16 10.752c-1.536 1.024-88.576 77.824-182.272 77.824-23.04 0-41.984 18.944-41.984 41.984v127.488c0 115.2 68.096 211.968 228.352 323.584 7.168 5.12 15.872 7.68 24.064 7.68s16.896-2.56 24.064-7.68c160.256-111.616 228.352-208.384 228.352-323.584V348.16c0-23.04-18.944-41.984-41.984-41.984z m-108.544 237.568h-70.144v77.312H480.256v-77.312H410.112V480.256h70.144V410.112h62.976v70.144h70.144l0.512 63.488zM1024 512c0 282.624-229.376 512-512 512S0 794.624 0 512 229.376 0 512 0s512 229.376 512 512z" /></svg>