<?xml version="1.0" standalone="no"?><!DOCTYPE svg PUBLIC "-//W3C//DTD SVG 1.1//EN" "http://www.w3.org/Graphics/SVG/1.1/DTD/svg11.dtd"><svg class="icon" width="200px" height="200.00px" viewBox="0 0 1024 1024" version="1.1" xmlns="http://www.w3.org/2000/svg"><path fill="#ffffff" d="M921.996375 44.673688A27.134304 27.134304 0 0 0 927.948003 28.418704 28.926192 28.926192 0 0 0 898.509843 0.00448H644.31773a28.7982 28.7982 0 0 0-27.966252 21.566652L537.892382 170.937796a489.825386 489.825386 0 0 1 266.991313 102.009625zM486.055622 170.937796zM514.021874 229.110161A404.582714 404.582714 0 0 0 102.71958 626.525322 404.582714 404.582714 0 0 0 514.021874 1023.940484a404.582714 404.582714 0 0 0 411.366289-397.415162 404.582714 404.582714 0 0 0-411.366289-397.415161z m211.50678 361.961377L644.445722 667.482762l19.1988 107.833261c6.3996 36.221736-15.03906 52.028748-49.340916 34.55784l-100.217736-50.87682-100.281733 50.940816c-33.661896 17.086932-55.868508 2.303856-49.27692-34.621836l19.134804-107.833261-81.082932-76.411224c-27.262296-25.5984-19.582776-50.55684 18.814824-55.9965l112.056996-15.743016 50.108869-98.105869c16.830948-32.95794 43.773264-33.5979 60.988188 0l50.108868 98.105869 112.056996 15.743016c37.629648 5.311668 46.589088 29.886132 18.814824 55.9965zM486.055622 170.937796L407.660521 21.571132A28.7982 28.7982 0 0 0 379.694269 0.00448H125.43816A28.926192 28.926192 0 0 0 96 28.418704a27.134304 27.134304 0 0 0 5.951628 16.254984l117.11268 228.273733a489.825386 489.825386 0 0 1 266.991314-102.009625z"  /></svg>