<?xml version="1.0" standalone="no"?><!DOCTYPE svg PUBLIC "-//W3C//DTD SVG 1.1//EN" "http://www.w3.org/Graphics/SVG/1.1/DTD/svg11.dtd"><svg class="icon" width="200px" height="200.00px" viewBox="0 0 1024 1024" version="1.1" xmlns="http://www.w3.org/2000/svg"><path fill="#ffffff" d="M709.05535 581.898373l-79.769006-19.964583c33.653945-29.902211 61.099664-71.037292 79.478693-116.125093 25.726174-5.694596 49.330833-27.110743 53.216557-74.297728 3.662407-44.44018-9.915296-64.248441-28.138003-72.890827-0.223317-5.292624-0.468967-10.47359-0.781611-15.542897 23.426004-129.792123-69.295416-175.147904-76.508571-177.336416-12.081476-18.356697-93.949666-129.993109-242.478126-39.370873-21.751123 13.265059-56.253675 39.393205-74.677367 65.700004-22.153095 27.825359-38.254285 68.089501-44.864483 126.286038-4.578008 0.491298-9.133685 1.205914-13.644698 2.233175-1.205914-28.562306 0.37964-112.730667 53.707855-172.579753 39.437868-44.239194 99.331618-66.682601 177.939373-66.682601 78.741746 0 139.863741 22.622061 181.668775 67.196232 68.670127 73.248135 62.461901 182.562045 62.394906 183.6563-0.401971 5.850918 4.064378 10.920225 9.892965 11.299865 0.267981 0.022332 0.468967 0.022332 0.736948 0.022332 5.538274 0 10.205609-4.310027 10.607581-9.937628 0.334976-4.845989 6.967506-119.363196-68.000174-199.48951C663.85589 24.922231 597.463602 0 512.51363 0c-85.039299 0-150.292668 24.877568-193.973568 73.962751-63.846469 71.751908-60.429712 171.061194-58.62084 194.174554-24.855236 13.28739-42.809962 42.207005-37.718323 104.110612 6.721856 81.577878 54.087495 110.006194 98.884983 110.006194 8.709382 0 16.391503-1.875867 23.180355-5.337288 25.636847 16.592489 66.79426 30.974135 132.739914 33.653945 6.476207 9.736642 20.009247 16.413835 35.730798 16.413835 21.929777 0 39.728181-13.086405 39.728181-29.232259 0-16.145854-17.798404-29.232259-39.728181-29.232259-17.887731 0-33.006324 8.68705-37.986304 20.634536-43.256597-2.054521-74.230732-9.401666-96.361495-18.669342-30.214856-40.621451-44.57417-109.58189-44.57417-148.975095 0-14.582632 0.468967-28.138003 1.317573-40.755441 139.707419 4.689667 222.759192-51.787325 268.137305-100.850177 58.442186 58.2412 79.233044 137.072273 86.155886 174.745933-13.53304 103.351332-87.22781 213.044882-176.688795 213.044882-38.477603 0-74.052078-20.299559-103.172679-51.653334-29.745889-6.208226-54.511798-15.922537-74.208401-29.098268 16.078859 28.74096 36.043442 54.444803 59.067475 74.856021l-79.94766 20.05391c-109.179919 27.356392-184.906878 125.013129-184.906878 237.54281l0 134.727439c0 38.209622 30.080865 69.876041 68.290487 69.876041l627.298818 0c38.209622 0 69.273084-31.66642 69.273084-69.876041l0-134.727439C894.453526 706.88917 818.235268 609.18777 709.05535 581.898373zM676.026693 617.517512l-103.842631 71.081956-31.621756-80.885593c14.292319-2.67981 28.115671-7.369477 41.38073-13.778689L676.026693 617.517512zM441.855978 593.778863c13.019409 6.25289 26.664108 10.897893 40.800105 13.622367l-31.755746 81.22057-103.864963-71.104288L441.855978 593.778863zM418.787281 980.274436l-119.519518 0 0-56.566319c0-5.895582-4.711999-10.652244-10.607581-10.652244-5.87325 0-10.607581 4.756662-10.607581 10.652244l0 56.566319-80.170977 0c-14.738954 0-25.882497-11.433855-25.882497-26.172809l0-134.682776c0-91.292188 60.340385-170.74855 147.925503-194.956165l131.132028 89.885288c1.339905 13.734025 12.77376 24.989227 27.445719 25.391198L418.787281 980.274436zM494.6259 635.62856l9.95996-25.569852c2.702142 0.13399 12.103808 0.178654 14.091333 0.089327l9.937628 25.480525L494.6259 635.62856zM852.023204 954.123959c0 14.738954-12.126139 26.172809-26.865094 26.172809l-80.505954 0 0-56.566319c0-5.895582-4.711999-10.652244-10.607581-10.652244s-10.629912 4.756662-10.629912 10.652244l0 56.566319-119.318533 0-59.715096-240.535264c14.5603-0.37964 25.949492-11.500851 27.445719-25.078554l131.757317-90.197933c87.585118 24.185284 148.394469 103.663977 148.394469 194.933833l0 134.682776L852.023204 954.101627z" /></svg>