<?xml version="1.0" standalone="no"?><!DOCTYPE svg PUBLIC "-//W3C//DTD SVG 1.1//EN" "http://www.w3.org/Graphics/SVG/1.1/DTD/svg11.dtd"><svg class="icon" width="200px" height="200.00px" viewBox="0 0 1024 1024" version="1.1" xmlns="http://www.w3.org/2000/svg"><path fill="#ffffff" d="M987.428571 329.142857v146.285714q0 14.857143-10.857142 25.714286t-25.714286 10.857143h-36.571429q-14.857143 0-25.714285-10.857143t-10.857143-25.714286V329.142857q0-60.571429-42.857143-103.428571t-103.428572-42.857143-103.428571 42.857143-42.857143 103.428571v109.714286h54.857143q22.857143 0 38.857143 16t16 38.857143v329.142857q0 22.857143-16 38.857143t-38.857143 16H91.428571q-22.857143 0-38.857142-16t-16-38.857143V493.714286q0-22.857143 16-38.857143t38.857142-16h384V329.142857q0-105.714286 75.142858-180.857143T731.428571 73.142857t180.857143 75.142857T987.428571 329.142857z" /></svg>