<?xml version="1.0" standalone="no"?><!DOCTYPE svg PUBLIC "-//W3C//DTD SVG 1.1//EN" "http://www.w3.org/Graphics/SVG/1.1/DTD/svg11.dtd"><svg class="icon" width="200px" height="200.00px" viewBox="0 0 1024 1024" version="1.1" xmlns="http://www.w3.org/2000/svg"><path fill="#ffffff" d="M903.514393 119.476115C821.414537 33.943067 665.846412 14.595416 510.289544 12.5662 354.734722 14.595416 199.165574 33.943067 117.054461 119.476115 31.004643 201.096041 11.540336 355.729887 9.49884 510.352477c2.041496 154.621567 21.505803 309.256436 107.555621 390.876362 82.112136 85.534072 237.681284 104.880699 393.235083 106.910938 155.556868-2.029216 311.124993-21.376866 393.225873-106.910938 86.061075-81.619926 105.526405-236.254795 107.566878-390.876362C1009.041822 355.729887 989.575468 201.096041 903.514393 119.476115zM723.125977 560.14451c20.748556 0 37.559431 16.71059 37.559431 37.332257 0 20.612457-16.810874 37.33328-37.559431 37.33328l-162.756851 0 0 99.558483c0 27.489074-22.424732 49.77873-50.079582 49.77873-27.65485 0-50.078559-22.288632-50.078559-49.77873L460.210985 634.81107l-162.756851 0c-20.748556 0-37.560454-16.721847-37.560454-37.33328 0-20.621667 16.810874-37.332257 37.560454-37.332257l162.756851 0 0-99.558483-162.756851 0c-20.748556 0-37.560454-16.72287-37.560454-37.334303 0-20.62269 16.810874-37.33328 37.560454-37.33328l66.546625 0-49.003064-80.004125c-10.367115-17.851577-4.205788-40.687678 13.755282-50.993394 17.959024-10.317996 40.933271-4.192485 51.30141 13.660114l71.865771 117.337405 114.696252 0 72.332399-118.103862c10.379395-17.86488 33.352619-23.989367 51.312666-13.672394 17.96107 10.305717 24.122397 33.141818 13.744026 50.995441l-49.468668 80.780815 68.589145 0c20.748556 0 37.559431 16.71059 37.559431 37.33328 0 20.612457-16.810874 37.334303-37.559431 37.334303l-162.756851 0 0 99.558483L723.125977 560.145533z" /></svg>